<mxfile host="app.diagrams.net" modified="2022-12-14T03:02:40.355Z" agent="5.0 (Macintosh; Intel Mac OS X 10_15_7) AppleWebKit/537.36 (KHTML, like Gecko) Chrome/108.0.0.0 Safari/537.36" version="20.6.2" etag="XG7GTdhKT1e3Y9pjrFvu" type="github">
  <diagram id="_WGNp41ZezmZs10M9mDv" name="Page-1">
    <mxGraphModel dx="1026" dy="514" grid="1" gridSize="10" guides="1" tooltips="1" connect="1" arrows="1" fold="1" page="1" pageScale="1" pageWidth="850" pageHeight="1100" math="0" shadow="0">
      <root>
        <mxCell id="0" />
        <mxCell id="1" parent="0" />
        <mxCell id="8lbfpt8IyCaQE79XCAro-3" style="edgeStyle=orthogonalEdgeStyle;rounded=0;orthogonalLoop=1;jettySize=auto;html=1;entryX=0.5;entryY=0;entryDx=0;entryDy=0;" edge="1" parent="1" source="8lbfpt8IyCaQE79XCAro-1" target="8lbfpt8IyCaQE79XCAro-2">
          <mxGeometry relative="1" as="geometry" />
        </mxCell>
        <mxCell id="8lbfpt8IyCaQE79XCAro-1" value="开始" style="rounded=1;whiteSpace=wrap;html=1;" vertex="1" parent="1">
          <mxGeometry x="365" y="50" width="120" height="60" as="geometry" />
        </mxCell>
        <mxCell id="8lbfpt8IyCaQE79XCAro-6" style="edgeStyle=orthogonalEdgeStyle;rounded=0;orthogonalLoop=1;jettySize=auto;html=1;entryX=0.5;entryY=0;entryDx=0;entryDy=0;" edge="1" parent="1" source="8lbfpt8IyCaQE79XCAro-2" target="8lbfpt8IyCaQE79XCAro-4">
          <mxGeometry relative="1" as="geometry" />
        </mxCell>
        <mxCell id="8lbfpt8IyCaQE79XCAro-2" value="程序初始化" style="rounded=0;whiteSpace=wrap;html=1;" vertex="1" parent="1">
          <mxGeometry x="365" y="170" width="120" height="60" as="geometry" />
        </mxCell>
        <mxCell id="8lbfpt8IyCaQE79XCAro-7" style="edgeStyle=orthogonalEdgeStyle;rounded=0;orthogonalLoop=1;jettySize=auto;html=1;entryX=0.5;entryY=0;entryDx=0;entryDy=0;" edge="1" parent="1" source="8lbfpt8IyCaQE79XCAro-4" target="8lbfpt8IyCaQE79XCAro-5">
          <mxGeometry relative="1" as="geometry" />
        </mxCell>
        <mxCell id="8lbfpt8IyCaQE79XCAro-4" value="获取当前系统时间年份等数据" style="rounded=0;whiteSpace=wrap;html=1;" vertex="1" parent="1">
          <mxGeometry x="365" y="280" width="120" height="60" as="geometry" />
        </mxCell>
        <mxCell id="8lbfpt8IyCaQE79XCAro-11" style="edgeStyle=orthogonalEdgeStyle;rounded=0;orthogonalLoop=1;jettySize=auto;html=1;" edge="1" parent="1" source="8lbfpt8IyCaQE79XCAro-5" target="8lbfpt8IyCaQE79XCAro-8">
          <mxGeometry relative="1" as="geometry" />
        </mxCell>
        <mxCell id="8lbfpt8IyCaQE79XCAro-5" value="计算时间" style="rounded=0;whiteSpace=wrap;html=1;" vertex="1" parent="1">
          <mxGeometry x="365" y="380" width="120" height="60" as="geometry" />
        </mxCell>
        <mxCell id="8lbfpt8IyCaQE79XCAro-10" style="edgeStyle=orthogonalEdgeStyle;rounded=0;orthogonalLoop=1;jettySize=auto;html=1;" edge="1" parent="1" source="8lbfpt8IyCaQE79XCAro-8" target="8lbfpt8IyCaQE79XCAro-5">
          <mxGeometry relative="1" as="geometry">
            <Array as="points">
              <mxPoint x="310" y="540" />
              <mxPoint x="310" y="410" />
            </Array>
          </mxGeometry>
        </mxCell>
        <mxCell id="8lbfpt8IyCaQE79XCAro-12" style="edgeStyle=orthogonalEdgeStyle;rounded=0;orthogonalLoop=1;jettySize=auto;html=1;exitX=0.5;exitY=1;exitDx=0;exitDy=0;entryX=0.5;entryY=0;entryDx=0;entryDy=0;" edge="1" parent="1" source="8lbfpt8IyCaQE79XCAro-8" target="8lbfpt8IyCaQE79XCAro-9">
          <mxGeometry relative="1" as="geometry" />
        </mxCell>
        <mxCell id="8lbfpt8IyCaQE79XCAro-14" style="edgeStyle=orthogonalEdgeStyle;rounded=0;orthogonalLoop=1;jettySize=auto;html=1;entryX=1;entryY=0.75;entryDx=0;entryDy=0;" edge="1" parent="1" source="8lbfpt8IyCaQE79XCAro-8" target="8lbfpt8IyCaQE79XCAro-13">
          <mxGeometry relative="1" as="geometry">
            <Array as="points">
              <mxPoint x="630" y="540" />
              <mxPoint x="630" y="765" />
            </Array>
          </mxGeometry>
        </mxCell>
        <mxCell id="8lbfpt8IyCaQE79XCAro-8" value="是否输入年份&lt;br&gt;是否选择了月份" style="rhombus;whiteSpace=wrap;html=1;" vertex="1" parent="1">
          <mxGeometry x="367" y="500" width="115" height="80" as="geometry" />
        </mxCell>
        <mxCell id="8lbfpt8IyCaQE79XCAro-9" value="根据所选年月&lt;br&gt;变更数据" style="whiteSpace=wrap;html=1;" vertex="1" parent="1">
          <mxGeometry x="367" y="610" width="120" height="60" as="geometry" />
        </mxCell>
        <mxCell id="8lbfpt8IyCaQE79XCAro-13" value="结束" style="rounded=1;whiteSpace=wrap;html=1;" vertex="1" parent="1">
          <mxGeometry x="365" y="720" width="120" height="60" as="geometry" />
        </mxCell>
      </root>
    </mxGraphModel>
  </diagram>
</mxfile>
